<?xml version="1.0" standalone="no"?>
<!DOCTYPE svg PUBLIC "-//W3C//DTD SVG 20010904//EN"
 "http://www.w3.org/TR/2001/REC-SVG-20010904/DTD/svg10.dtd">
<svg version="1.0" xmlns="http://www.w3.org/2000/svg"
 width="900.000000pt" height="900.000000pt" viewBox="0 0 900.000000 900.000000"
 preserveAspectRatio="xMidYMid meet">
<metadata>
Created by potrace 1.14, written by Peter Selinger 2001-2017
</metadata>
<g transform="translate(0.000000,900.000000) scale(0.100000,-0.100000)"
fill="#000000" stroke="none">
<path d="M7435 8090 c-22 -4 -74 -10 -115 -14 -79 -6 -165 -19 -190 -29 -8 -3
-31 -8 -50 -11 -82 -11 -117 -20 -145 -38 -16 -10 -24 -18 -17 -18 6 0 12 -11
12 -24 0 -14 5 -28 10 -31 6 -3 10 -13 10 -21 0 -25 116 -273 133 -285 5 -4 7
-11 3 -17 -3 -6 2 -15 11 -21 10 -6 14 -11 8 -11 -7 0 -7 -3 0 -8 13 -9 31
-37 53 -83 9 -19 30 -47 45 -61 15 -14 27 -33 27 -42 0 -9 4 -16 10 -16 5 0 6
-7 3 -17 -4 -11 -3 -14 5 -9 7 4 15 0 19 -11 4 -10 19 -30 35 -44 15 -15 24
-29 21 -33 -3 -3 -1 -6 6 -6 7 0 9 -4 6 -10 -3 -5 2 -10 11 -10 10 0 15 -3 11
-6 -6 -6 228 -244 241 -244 4 0 28 -20 54 -45 27 -25 52 -45 57 -45 6 0 15 -8
20 -17 6 -10 11 -14 11 -10 0 4 11 -4 25 -18 14 -14 30 -25 35 -25 5 0 15 -6
22 -12 19 -18 69 -48 91 -55 9 -3 17 -9 17 -14 0 -5 10 -9 21 -9 18 0 19 -2 9
-15 -11 -13 -10 -14 3 -10 8 4 18 2 22 -4 3 -6 19 -11 36 -11 21 0 29 5 29 18
0 10 4 22 9 27 18 20 51 86 51 104 0 10 7 35 15 55 8 20 13 36 10 36 -2 0 4
16 15 35 11 20 20 43 20 52 0 9 9 44 20 77 37 111 40 122 40 153 0 17 4 33 9
35 6 2 11 27 12 56 2 28 6 52 9 52 4 0 10 53 14 118 18 312 18 374 6 447 -12
72 -14 75 -41 75 -15 0 -31 5 -34 10 -3 6 -26 10 -51 10 -24 0 -44 4 -44 8 0
5 -23 9 -52 11 -28 1 -56 4 -60 7 -42 26 -463 44 -563 24z"/>
<path d="M6705 7938 c-27 -11 -58 -21 -67 -21 -9 -1 -15 -4 -13 -7 2 -3 -17
-12 -43 -19 -26 -8 -65 -22 -86 -32 -22 -11 -46 -19 -53 -19 -7 0 -13 -4 -13
-10 0 -5 -9 -10 -20 -10 -11 0 -20 -4 -20 -10 0 -5 -9 -10 -20 -10 -11 0 -20
-4 -20 -10 0 -5 -7 -10 -15 -10 -14 0 -53 -18 -65 -30 -12 -12 -51 -30 -65
-30 -8 0 -15 -4 -15 -10 0 -5 -7 -10 -16 -10 -8 0 -22 -7 -31 -15 -8 -8 -19
-13 -24 -10 -5 4 -9 2 -9 -3 0 -10 -53 -36 -66 -32 -4 1 -10 -3 -13 -8 -3 -5
-19 -13 -36 -19 -16 -5 -30 -14 -29 -19 1 -13 -15 -26 -66 -53 -25 -13 -54
-31 -65 -40 -11 -9 -33 -23 -50 -31 -16 -8 -36 -21 -43 -27 -7 -7 -17 -13 -20
-13 -4 0 -18 -10 -32 -23 -14 -12 -41 -34 -60 -47 -19 -13 -41 -30 -48 -37 -7
-7 -17 -13 -21 -13 -4 0 -18 -9 -31 -20 -13 -11 -29 -20 -37 -20 -8 0 -12 -4
-8 -9 3 -5 -4 -12 -15 -16 -11 -3 -20 -11 -20 -16 0 -5 -7 -9 -16 -9 -8 0 -12
-4 -9 -10 3 -5 0 -10 -7 -10 -8 0 -31 -16 -52 -35 -21 -19 -42 -32 -47 -29 -5
3 -9 -1 -9 -8 0 -7 -13 -23 -28 -35 -15 -12 -38 -31 -51 -42 -13 -11 -28 -18
-34 -14 -5 3 -7 1 -4 -4 4 -6 -14 -28 -40 -49 -25 -22 -63 -55 -83 -74 -83
-78 -108 -98 -116 -92 -4 4 -4 2 -1 -4 7 -12 -36 -54 -54 -54 -5 0 -7 -5 -3
-12 5 -7 2 -9 -8 -5 -10 3 -15 0 -14 -11 0 -10 -6 -16 -16 -16 -11 1 -15 -4
-11 -15 4 -9 3 -13 -2 -9 -8 8 -55 -40 -55 -56 0 -4 -7 -5 -16 -2 -8 3 -13 2
-10 -3 7 -12 -39 -53 -49 -44 -4 5 -5 2 -1 -5 9 -15 -82 -114 -96 -106 -5 3
-7 1 -6 -4 4 -13 -128 -152 -137 -144 -5 4 -5 2 -2 -4 4 -6 -5 -20 -18 -30
-14 -10 -25 -23 -25 -27 0 -14 -27 -37 -35 -29 -4 4 -6 3 -5 -3 5 -22 -1 -35
-15 -35 -9 0 -19 -8 -22 -17 -4 -10 -17 -29 -29 -43 -54 -61 -74 -85 -74 -92
0 -5 -6 -8 -14 -8 -14 0 -46 -41 -46 -60 0 -6 -22 -33 -50 -60 -27 -27 -50
-54 -50 -60 0 -6 -7 -18 -15 -26 -8 -9 -15 -12 -15 -7 0 4 -8 -6 -17 -24 -10
-17 -33 -49 -51 -70 -19 -21 -41 -50 -50 -65 -9 -16 -20 -28 -24 -28 -4 0 -8
-7 -8 -16 0 -8 -4 -12 -10 -9 -5 3 -10 0 -10 -8 0 -7 -9 -23 -20 -35 -11 -12
-20 -25 -20 -30 0 -5 -13 -23 -30 -40 -16 -18 -30 -35 -30 -39 0 -8 -6 -16
-84 -114 -24 -32 -54 -76 -66 -98 -11 -23 -27 -44 -35 -48 -8 -3 -13 -9 -10
-13 3 -5 0 -14 -7 -22 -7 -7 -19 -25 -27 -40 -8 -16 -18 -28 -23 -28 -4 0 -8
-12 -8 -26 0 -25 28 -74 60 -104 8 -8 31 -35 50 -60 19 -25 39 -50 45 -56 5
-6 26 -30 45 -53 19 -24 54 -63 77 -89 23 -26 43 -51 43 -55 0 -4 16 -23 35
-43 19 -19 35 -38 35 -42 0 -4 16 -25 35 -45 19 -20 35 -42 35 -49 0 -6 3 -8
6 -5 8 8 41 -28 49 -54 4 -11 13 -19 20 -19 8 0 17 -5 21 -12 5 -7 2 -8 -7 -3
-8 4 5 -11 29 -34 27 -26 41 -48 38 -57 -3 -8 -2 -13 3 -10 9 6 32 -14 81 -74
19 -23 41 -48 48 -55 6 -8 12 -16 12 -20 0 -3 16 -22 35 -41 20 -19 32 -40 29
-46 -4 -7 -3 -8 4 -4 6 3 16 -3 22 -15 6 -11 27 -37 46 -57 19 -20 51 -58 72
-84 20 -26 47 -51 59 -54 13 -3 20 -10 17 -15 -3 -5 2 -6 10 -3 9 3 13 10 10
15 -3 5 7 9 21 9 14 0 24 4 21 9 -7 11 38 31 70 31 14 0 23 4 20 9 -3 4 14 14
37 22 23 7 51 21 61 31 11 10 28 18 37 18 10 0 21 5 24 11 4 6 13 8 21 5 8 -3
17 1 20 9 4 8 12 15 20 15 7 0 29 9 49 20 20 11 44 20 54 20 11 0 21 3 23 8 6
14 145 82 153 74 5 -4 5 -1 1 6 -4 7 -1 12 8 12 8 0 16 3 18 8 6 14 90 52 116
53 15 0 21 3 14 6 -15 6 30 33 55 33 8 0 11 5 8 10 -3 6 0 10 9 10 8 0 16 3
18 8 6 14 145 82 153 74 5 -4 5 -1 1 6 -5 8 0 12 14 12 12 0 19 4 16 8 -3 5
11 17 31 26 41 20 172 98 217 129 19 14 27 16 22 6 -4 -7 1 -5 11 6 10 11 30
26 46 34 15 8 27 18 27 23 0 4 9 8 20 8 11 0 20 5 20 10 0 6 6 10 14 10 8 0
30 14 48 30 18 17 41 30 51 30 10 0 16 4 13 8 -3 5 7 15 22 23 15 8 33 20 41
27 18 17 175 128 178 125 1 -1 19 14 39 32 20 19 40 32 44 30 3 -2 12 5 20 15
8 10 17 17 22 14 4 -3 8 0 8 5 0 6 6 11 13 11 6 0 27 16 44 35 18 19 36 35 41
35 4 0 30 20 57 44 27 25 52 43 55 41 4 -2 13 5 20 16 8 10 22 19 32 19 10 0
18 6 18 13 1 6 15 23 32 37 17 14 44 40 61 58 17 17 37 32 45 32 9 0 13 2 10
5 -10 10 140 147 153 139 8 -5 10 -3 5 5 -10 16 24 53 41 46 8 -2 12 -1 9 3
-7 12 99 113 109 104 5 -4 5 -1 1 6 -9 15 32 65 45 56 5 -3 9 0 9 7 0 17 66
79 75 71 4 -4 5 0 3 8 -1 8 3 14 10 12 6 -1 11 1 11 5 -3 20 2 34 11 28 6 -3
10 0 10 7 0 7 19 34 43 59 77 85 95 107 89 113 -3 3 1 6 8 6 7 0 11 3 7 6 -3
3 12 24 34 47 21 23 39 48 39 54 0 7 5 13 10 13 6 0 10 6 10 13 0 6 11 25 25
41 14 16 25 32 25 36 0 4 11 20 25 36 14 16 25 32 25 36 0 4 11 19 26 33 14
14 22 30 19 35 -3 6 -1 10 4 10 6 0 11 8 11 18 0 10 9 24 20 32 11 8 20 22 20
31 0 9 7 19 15 23 8 3 12 12 9 21 -3 8 -1 15 5 15 6 0 11 9 11 19 0 11 4 22
10 26 18 11 -3 36 -46 57 -24 11 -44 24 -44 30 0 5 -4 7 -9 4 -5 -4 -22 7 -38
22 -15 16 -34 27 -41 24 -6 -2 -12 1 -12 7 0 6 -6 11 -13 11 -7 0 -30 15 -52
34 -22 19 -42 33 -45 31 -4 -2 -13 5 -20 16 -8 10 -19 19 -25 19 -6 0 -18 8
-27 18 -16 17 -51 46 -122 102 -21 16 -36 30 -32 30 3 0 -13 17 -36 38 -52 45
-58 53 -51 66 3 5 1 6 -4 3 -10 -6 -46 29 -123 123 -19 24 -42 50 -51 59 -9 9
-19 25 -23 36 -3 11 -17 32 -31 47 -14 15 -25 31 -25 36 0 4 -9 18 -21 30 -11
13 -17 28 -13 35 4 6 4 9 -1 5 -8 -8 -51 51 -47 65 1 4 -2 7 -8 7 -5 0 -10 9
-10 19 0 11 -3 21 -7 23 -9 4 -73 127 -73 140 0 5 -7 16 -15 25 -9 8 -19 28
-22 44 -3 16 -9 29 -14 29 -5 0 -9 9 -9 19 0 11 -4 23 -10 26 -5 3 -10 15 -10
26 0 10 -4 27 -9 37 -5 9 -16 34 -25 55 -18 42 -22 43 -91 15z m-138 -752 c68
-13 172 -45 183 -56 3 -3 26 -16 53 -29 26 -13 47 -28 47 -33 0 -5 4 -7 9 -3
6 3 49 -34 98 -82 68 -68 97 -105 125 -163 53 -110 68 -148 68 -175 0 -13 5
-27 10 -30 19 -12 12 -238 -11 -323 -18 -68 -29 -94 -73 -178 -31 -60 -125
-166 -139 -157 -5 3 -7 1 -3 -5 3 -6 -8 -21 -26 -33 -18 -13 -42 -31 -52 -41
-11 -10 -24 -18 -29 -18 -4 0 -15 -7 -24 -15 -8 -9 -28 -19 -44 -22 -16 -3
-29 -9 -29 -14 0 -5 -13 -9 -30 -9 -16 0 -30 -4 -30 -10 0 -5 -18 -10 -39 -10
-22 0 -41 -5 -43 -10 -4 -13 -256 -14 -289 -2 -13 6 -44 16 -69 23 -57 16
-190 86 -211 110 -9 11 -21 19 -27 19 -13 0 -102 103 -102 118 0 5 -11 18 -25
30 -27 23 -77 117 -99 184 -25 78 -39 179 -33 252 6 82 36 216 49 216 4 0 8
11 8 24 0 14 5 28 10 31 6 3 10 15 10 26 0 10 5 19 10 19 6 0 10 6 10 13 0 7
9 23 20 35 11 12 20 26 20 32 0 19 137 145 180 166 22 10 40 23 40 27 0 5 5 5
10 2 6 -3 10 -2 10 4 0 14 104 61 135 61 14 0 25 4 25 8 0 9 115 28 185 30 22
1 72 -4 112 -12z"/>
<path d="M6365 7064 c-52 -5 -113 -24 -150 -46 -16 -10 -38 -18 -47 -18 -10 0
-18 -4 -18 -8 0 -4 -14 -16 -30 -26 -42 -24 -132 -114 -155 -153 -11 -18 -23
-33 -27 -33 -4 0 -8 -7 -8 -15 0 -8 -8 -29 -18 -47 -35 -63 -47 -129 -47 -253
1 -76 6 -134 14 -155 27 -71 54 -126 81 -165 15 -22 28 -43 29 -47 4 -19 114
-111 155 -129 14 -7 26 -16 26 -21 0 -4 7 -8 15 -8 8 0 34 -9 58 -19 134 -60
322 -51 477 23 25 11 56 31 70 43 14 13 28 23 32 23 3 0 30 23 58 52 48 48 65
74 113 165 30 58 51 154 51 238 0 81 -12 186 -23 195 -3 3 -12 23 -20 45 -7
22 -24 55 -38 73 -13 17 -21 32 -18 32 11 0 -136 143 -170 166 -42 28 -105 57
-134 62 -14 2 -32 7 -42 13 -20 10 -173 19 -234 13z"/>
<path d="M6250 7790 c0 -5 5 -10 10 -10 6 0 10 5 10 10 0 6 -4 10 -10 10 -5 0
-10 -4 -10 -10z"/>
<path d="M4109 6375 c-3 -2 -56 -7 -119 -10 -63 -4 -140 -11 -170 -16 -30 -5
-81 -10 -112 -11 -31 -1 -54 -6 -52 -10 3 -4 -7 -8 -23 -9 -15 0 -37 -3 -48
-6 -11 -3 -37 -7 -58 -10 -20 -3 -40 -9 -43 -14 -3 -5 -20 -9 -39 -9 -19 0
-37 -4 -40 -10 -3 -5 -17 -10 -30 -10 -13 0 -27 -4 -30 -10 -3 -5 -16 -10 -28
-10 -13 0 -40 -9 -62 -20 -22 -11 -50 -20 -62 -20 -13 0 -23 -4 -23 -10 0 -5
-9 -10 -20 -10 -26 0 -72 -21 -91 -42 -9 -10 -25 -18 -36 -18 -10 0 -29 -9
-41 -20 -12 -11 -27 -20 -34 -20 -8 0 -20 -9 -28 -20 -8 -11 -22 -20 -32 -20
-10 0 -18 -5 -18 -11 0 -5 -4 -8 -9 -5 -5 3 -26 -10 -47 -29 -22 -19 -45 -35
-51 -35 -7 0 -13 -5 -13 -11 0 -6 -7 -9 -14 -6 -11 4 -13 1 -9 -11 6 -15 5
-15 -10 -3 -15 12 -17 12 -11 -3 5 -12 0 -19 -15 -23 -11 -3 -21 -12 -21 -19
0 -8 -4 -14 -9 -14 -12 0 -71 -56 -71 -68 0 -10 69 -22 126 -22 19 0 34 -4 34
-8 0 -5 23 -9 51 -11 28 -1 63 -7 77 -12 34 -14 59 -20 100 -26 18 -3 35 -9
38 -14 3 -5 16 -9 30 -9 13 0 24 -4 24 -10 0 -5 13 -10 29 -10 17 0 32 -4 35
-9 3 -4 30 -16 61 -26 31 -9 62 -23 70 -31 7 -8 21 -14 29 -14 9 0 16 -3 16
-7 0 -9 49 -33 67 -33 7 0 13 -4 13 -10 0 -5 6 -10 13 -10 7 0 24 -10 37 -22
14 -13 27 -23 30 -23 3 0 4 -3 3 -7 -2 -5 0 -7 5 -7 19 3 33 -2 27 -11 -3 -5
1 -10 9 -10 9 0 16 -5 16 -12 0 -6 3 -8 7 -5 9 10 34 -14 26 -26 -3 -6 -1 -7
5 -3 7 4 12 2 12 -3 0 -26 40 -9 54 22 8 17 28 48 45 67 17 19 31 38 31 42 0
8 23 38 53 70 9 10 15 18 12 18 -3 0 0 6 7 14 7 8 17 11 22 9 5 -3 7 0 4 8 -5
14 1 22 40 64 12 13 22 28 22 33 0 5 18 29 40 52 22 23 40 48 40 54 0 6 9 18
20 26 11 8 20 19 20 25 1 17 67 85 75 77 5 -4 5 -2 2 5 -4 6 4 20 18 31 14 11
25 24 25 29 0 5 18 25 40 43 22 18 40 38 40 43 0 17 50 77 63 74 6 -1 13 7 15
19 1 11 12 27 24 35 67 45 77 89 23 100 -35 8 -200 11 -206 4z m224 -60 c-3
-9 -8 -14 -10 -11 -3 3 -2 9 2 15 9 16 15 13 8 -4z"/>
<path d="M3935 5810 c-3 -5 -1 -10 4 -10 6 0 11 5 11 10 0 6 -2 10 -4 10 -3 0
-8 -4 -11 -10z"/>
<path d="M3530 5023 c0 -6 8 -17 18 -24 16 -13 16 -13 2 6 -8 11 -16 22 -17
24 -2 2 -3 0 -3 -6z"/>
<path d="M2515 4780 c-44 -4 -105 -13 -135 -19 -30 -6 -72 -14 -93 -17 -21 -4
-40 -11 -43 -15 -3 -5 -14 -9 -25 -9 -19 0 -101 -30 -141 -51 -10 -5 -24 -9
-32 -9 -8 0 -16 -3 -18 -7 -4 -11 -96 -56 -113 -56 -8 0 -12 -4 -9 -9 5 -7
-11 -12 -19 -5 -2 1 -11 -5 -20 -13 -33 -30 -47 -41 -47 -35 0 3 -11 -6 -25
-20 -14 -14 -30 -25 -35 -25 -6 0 -26 -16 -47 -35 -20 -19 -41 -31 -46 -28 -6
3 -7 1 -4 -4 4 -6 0 -16 -8 -23 -8 -7 -15 -9 -15 -6 0 4 -11 -4 -25 -18 -14
-14 -25 -30 -25 -37 0 -7 -9 -5 -22 7 -22 19 -22 19 -8 0 12 -15 12 -20 3 -23
-7 -3 -13 -9 -13 -13 0 -5 -10 -20 -22 -33 -54 -55 -138 -161 -138 -173 0 -5
-16 -27 -36 -48 -19 -22 -38 -52 -41 -68 -3 -15 -9 -28 -14 -28 -5 0 -9 -6 -9
-13 0 -8 -9 -22 -20 -32 -11 -10 -17 -21 -15 -26 3 -4 -2 -14 -10 -22 -8 -9
-15 -21 -15 -27 0 -6 -8 -19 -18 -30 -10 -11 -19 -33 -20 -49 -3 -36 12 -34
59 10 17 16 40 29 51 29 10 0 17 4 14 9 -3 5 8 14 24 21 17 7 30 16 30 21 0 5
8 9 18 9 10 0 22 4 28 10 5 5 28 10 51 12 22 2 39 6 37 9 -6 10 104 29 165 29
53 0 187 -23 198 -34 9 -9 -8 -26 -27 -26 -10 0 -40 -11 -66 -25 -25 -14 -50
-22 -55 -19 -5 3 -9 0 -9 -5 0 -6 -6 -11 -13 -11 -18 0 -67 -24 -67 -32 0 -5
-9 -8 -20 -8 -11 0 -20 -5 -20 -11 0 -6 -6 -9 -13 -6 -7 3 -23 -6 -36 -19 -13
-13 -29 -24 -36 -24 -7 0 -15 -3 -17 -7 -3 -9 -45 -43 -98 -83 -19 -14 -40
-33 -49 -42 -8 -9 -18 -15 -23 -12 -5 3 -7 2 -6 -3 2 -5 -7 -19 -19 -33 -13
-13 -23 -27 -23 -32 0 -4 -7 -8 -17 -8 -9 0 -13 -3 -10 -6 5 -6 -25 -58 -43
-74 -5 -5 -22 -34 -39 -67 -17 -34 -30 -68 -58 -148 -27 -78 -28 -86 -28 -295
0 -198 8 -304 35 -450 39 -215 55 -363 54 -510 -2 -194 -24 -310 -75 -382 -11
-14 -19 -30 -19 -35 0 -5 -11 -20 -25 -33 -14 -13 -23 -26 -20 -28 6 -6 -165
-172 -177 -172 -5 0 -18 -9 -30 -20 -12 -11 -30 -20 -40 -20 -11 0 -16 -5 -13
-10 3 -5 1 -10 -4 -10 -17 0 -13 -40 4 -41 17 -2 24 -3 45 -12 8 -3 31 -8 50
-11 19 -3 67 -12 105 -21 77 -17 327 -20 357 -4 9 5 28 10 42 11 15 1 26 6 26
10 0 4 12 8 28 8 30 0 135 50 168 81 11 10 26 19 32 19 7 0 12 5 12 10 0 6 6
10 14 10 8 0 17 7 20 16 3 8 11 12 16 9 6 -4 9 -1 8 7 -2 7 3 12 10 11 6 -2
12 2 12 8 0 16 26 39 35 31 5 -4 5 -2 1 5 -4 7 8 26 26 45 18 18 39 45 47 60
8 15 22 37 33 47 10 11 18 27 18 36 0 9 6 18 14 21 9 3 12 12 9 21 -4 11 -2
14 5 9 8 -5 12 3 12 23 0 17 5 31 10 31 6 0 10 9 10 20 0 11 5 20 10 20 6 0
10 7 10 16 0 17 40 95 55 106 7 5 7 8 0 8 -5 0 -2 5 8 11 9 5 17 18 17 28 0 9
8 26 18 37 9 10 23 31 31 47 8 15 18 27 23 27 4 0 8 6 8 14 0 7 14 27 30 44
17 18 30 34 30 37 0 8 80 79 108 95 14 8 35 23 46 33 11 9 30 17 43 17 14 0
22 4 19 9 -11 17 181 38 197 22 6 -6 19 -11 29 -11 11 0 18 -7 18 -20 0 -11
-4 -20 -10 -20 -5 0 -10 -6 -10 -13 0 -7 -9 -23 -20 -35 -11 -12 -20 -24 -20
-28 0 -3 -8 -18 -19 -32 -10 -15 -29 -56 -41 -92 -13 -36 -26 -69 -30 -75 -16
-23 -36 -135 -47 -257 -5 -58 -3 -68 11 -68 9 0 21 9 28 20 7 11 17 20 23 20
6 0 15 10 20 23 6 12 16 21 23 19 7 -1 12 5 12 13 0 9 8 19 18 22 22 9 42 29
42 43 0 6 8 14 17 17 10 4 32 22 51 40 18 18 36 33 41 33 5 0 26 16 47 35 21
19 43 35 48 35 6 0 22 9 36 20 14 11 35 20 48 20 13 0 32 9 44 20 12 11 29 20
38 20 9 0 20 3 24 7 10 11 79 33 103 33 12 0 25 5 28 10 3 6 29 10 56 10 31 0
48 4 44 10 -4 6 16 11 52 12 75 2 95 4 113 11 39 13 123 37 132 37 9 0 33 10
108 43 14 6 36 19 49 29 13 10 31 18 40 18 9 0 23 9 31 20 10 14 16 16 22 7 5
-8 8 -4 8 11 0 14 6 22 16 22 15 0 184 161 184 175 0 5 23 34 62 77 15 16 30
38 33 49 4 10 11 19 16 19 5 0 9 6 9 13 0 18 24 67 33 67 4 0 7 9 7 20 0 11 5
20 10 20 6 0 10 9 10 20 0 11 4 20 8 20 4 0 8 9 9 21 1 11 10 39 21 62 37 82
49 138 62 312 9 123 5 272 -11 355 -21 113 -70 277 -100 332 -5 10 -9 26 -9
35 0 10 -9 29 -20 43 -11 14 -20 28 -20 32 0 7 -71 122 -88 143 -26 32 -72
105 -72 114 0 6 -3 11 -8 11 -4 0 -12 10 -17 22 -6 12 -19 26 -30 32 -11 6
-24 16 -30 23 -5 6 -30 34 -55 62 -24 29 -66 66 -92 82 -26 17 -48 34 -48 38
0 4 -18 16 -40 27 -22 10 -40 22 -40 25 0 4 -13 12 -29 19 -16 6 -32 18 -35
26 -3 7 -12 11 -21 8 -8 -3 -15 -1 -15 5 0 6 -7 11 -16 11 -8 0 -13 4 -10 8 3
5 0 9 -7 9 -7 0 -44 16 -84 36 -39 19 -74 33 -77 29 -3 -3 -6 -1 -6 5 0 8 -44
26 -92 39 -5 1 -9 2 -10 4 -2 1 -16 4 -33 6 -16 2 -46 8 -65 13 -123 32 -410
48 -575 31z"/>
<path d="M5953 4431 c1 -3 -2 -8 -8 -10 -5 -3 -19 -13 -29 -23 -11 -10 -24
-18 -29 -18 -4 0 -15 -7 -23 -15 -8 -8 -22 -11 -32 -8 -9 3 -14 3 -10 -2 10
-10 -11 -37 -23 -29 -5 3 -9 1 -9 -4 0 -5 -8 -12 -17 -16 -10 -3 -31 -14 -48
-24 -16 -11 -35 -17 -41 -15 -6 2 -27 -11 -48 -30 -20 -19 -54 -40 -76 -47
-22 -7 -37 -17 -33 -23 4 -6 0 -8 -10 -4 -9 3 -20 1 -24 -6 -10 -15 -55 -42
-105 -63 -21 -9 -38 -20 -38 -25 0 -5 -9 -9 -20 -9 -11 0 -20 -4 -20 -10 0 -5
-7 -10 -16 -10 -8 0 -22 -7 -31 -15 -8 -8 -19 -13 -24 -10 -5 4 -9 1 -9 -4 0
-6 -12 -11 -26 -11 -14 0 -23 -4 -19 -10 3 -5 -3 -10 -14 -10 -12 0 -21 -3
-21 -8 0 -8 -61 -38 -72 -34 -5 1 -8 -3 -8 -8 0 -6 -6 -10 -13 -10 -18 0 -67
-24 -67 -32 0 -5 -8 -8 -17 -8 -26 -1 -56 -27 -58 -49 -1 -11 2 -18 6 -16 10
7 20 -25 12 -37 -3 -7 -1 -8 5 -4 8 5 12 0 12 -13 0 -12 5 -21 11 -21 5 0 7
-5 4 -10 -3 -6 1 -13 9 -16 9 -3 16 -17 16 -30 0 -13 5 -24 10 -24 6 0 10 -13
10 -30 0 -16 5 -30 10 -30 6 0 10 -13 10 -30 0 -16 4 -30 9 -30 5 0 12 -12 15
-27 4 -16 11 -46 17 -68 39 -154 57 -309 56 -489 0 -122 3 -171 11 -174 7 -2
12 2 12 8 0 7 7 10 15 7 8 -4 17 -1 21 5 5 7 2 8 -7 4 -8 -4 -3 2 11 13 14 11
30 21 35 21 6 0 27 18 49 40 21 22 43 40 47 40 5 0 9 8 9 17 0 9 3 14 6 10 8
-8 33 16 27 26 -2 4 3 7 11 7 9 0 16 6 16 13 0 6 22 35 49 64 27 29 47 54 45
56 -2 2 12 19 31 37 19 19 35 39 35 46 0 6 12 24 28 39 15 16 21 25 13 20 -9
-5 -7 2 5 17 10 14 22 24 25 22 4 -2 6 4 5 14 0 9 5 16 11 15 7 -2 12 0 11 5
-4 14 13 52 23 52 6 0 7 5 4 10 -3 6 -1 10 5 10 6 0 9 4 6 9 -3 5 1 14 9 21 8
7 15 21 15 31 0 11 5 19 10 19 6 0 10 10 10 23 0 18 2 19 10 7 7 -11 10 -7 10
18 0 17 5 32 11 32 5 0 8 3 5 8 -5 9 28 84 35 78 3 -3 6 7 7 22 1 14 7 31 12
36 6 6 10 20 10 33 0 13 4 23 8 23 5 0 9 7 9 15 0 15 37 138 53 180 9 21 17
58 26 110 3 17 9 39 14 50 5 11 11 43 15 70 4 28 11 77 16 110 22 141 22 132
0 138 -11 3 -19 2 -18 -2z"/>
</g>
</svg>
